<?xml version="1.0" encoding="utf-8"?>
<svg viewBox="0 0 500 500" xmlns="http://www.w3.org/2000/svg">
  <path d="M 78.547 137.715 L 421.451 137.715 L 421.451 482.035 L 78.547 482.035 Z M 345.915 445.32 L 387.765 445.32 L 387.765 184.476 L 345.915 184.476 Z M 271.06 445.32 L 312.912 445.32 L 312.912 184.476 L 271.06 184.476 Z M 196.206 445.32 L 238.056 445.32 L 238.056 184.476 L 196.206 184.476 Z M 121.352 445.32 L 163.202 445.32 L 163.202 184.476 L 121.352 184.476 Z" style="fill: rgb(255, 0, 255);"/>
  <path style="fill: rgb(216, 216, 216); stroke: rgb(0, 0, 0);" d="M 131.229 259.07"/>
  <path d="M 209.283 17.964 L 290.718 17.964 L 290.718 65.767 C 369.056 70.329 437.424 88.184 437.424 119.293 L 62.575 119.293 C 62.575 88.108 130.942 70.273 209.283 65.749 Z" style="fill: rgb(255, 0, 255);" class="clear-icon-lid&quot; d=&quot;M 216.064 65.969 L 283.937 65.969 L 283.937 106.293 C 349.23 110.141 406.212 125.203 406.212 151.444 L 93.788 151.444 C 93.788 125.138 150.77 110.094 216.064 106.277 Z"/>
</svg>