<?xml version="1.0" encoding="utf-8"?>
<svg viewBox="0 0 500 500" xmlns="http://www.w3.org/2000/svg">
  <path style="fill: rgb(216, 216, 216); stroke: rgb(0, 0, 0);" d="M 131.229 259.07"/>
  <path d="M 21.109 24.199 H 478.89 V 121.627 H 21.109 V 24.199 Z" style="fill: rgb(255, 0, 255);"/>
  <path d="M 21.109 378.373 H 478.89 V 475.801 H 21.109 V 378.373 Z" style="fill: rgb(255, 0, 255);"/>
  <g style="" transform="matrix(1.153805, 0, 0, 1.153805, -38.451324, -122.736801)">
    <path d="M 172.467 349.29 L 327.532 349.29 L 327.532 394.865 L 172.467 394.865 L 172.467 349.29 Z" style="fill: rgb(255, 0, 255);" transform="matrix(0, 1, -1, 0, 622.077003, 122.077995)"/>
    <path d="M 138.638 285.008 L 287.985 285.008 L 287.985 330.583 L 138.638 330.583 L 138.638 285.008 Z" style="fill: rgb(255, 0, 255);" transform="matrix(0.707107, -0.707107, 0.707107, 0.707107, -155.166797, 240.985218)"/>
    <path d="M 212.015 285.009 L 361.362 285.009 L 361.362 330.584 L 212.015 330.584 L 212.015 285.009 Z" style="fill: rgb(255, 0, 255);" transform="matrix(0.707107, 0.707107, -0.707107, 0.707107, 301.614116, -112.567872)"/>
  </g>
</svg>